<svg width="30" height="30" viewBox="0 0 30 30" fill="none" xmlns="http://www.w3.org/2000/svg">
<path d="M21.9102 24.3548C20.7651 24.3548 19.7972 23.9595 19.0065 23.1688C18.2159 22.3781 17.8205 21.4102 17.8205 20.2651C17.8205 19.12 18.2159 18.1521 19.0065 17.3614C19.7972 16.5707 20.7651 16.1754 21.9102 16.1754C23.0553 16.1754 24.0232 16.5707 24.8139 17.3614C25.6046 18.1521 25.9999 19.12 25.9999 20.2651C25.9999 21.4102 25.6046 22.3781 24.8139 23.1688C24.0232 23.9595 23.0553 24.3548 21.9102 24.3548ZM21.909 22.5215C22.5319 22.5215 23.0639 22.3014 23.505 21.861C23.9461 21.4207 24.1666 20.8891 24.1666 20.2663C24.1666 19.6434 23.9465 19.1114 23.5062 18.6703C23.0659 18.2292 22.5343 18.0087 21.9114 18.0087C21.2885 18.0087 20.7565 18.2288 20.3154 18.6691C19.8743 19.1094 19.6538 19.641 19.6538 20.2639C19.6538 20.8868 19.8739 21.4188 20.3143 21.8599C20.7546 22.301 21.2862 22.5215 21.909 22.5215ZM14.2243 21.1817H6.75C6.49028 21.1817 6.27257 21.0938 6.09688 20.9181C5.92118 20.7423 5.83333 20.5245 5.83333 20.2647C5.83333 20.0048 5.92118 19.7872 6.09688 19.6117C6.27257 19.4362 6.49028 19.3485 6.75 19.3485H14.2243C14.4841 19.3485 14.7018 19.4363 14.8775 19.6121C15.0532 19.7879 15.141 20.0057 15.141 20.2655C15.141 20.5253 15.0532 20.743 14.8775 20.9185C14.7018 21.094 14.4841 21.1817 14.2243 21.1817ZM8.08971 13.8249C6.94461 13.8249 5.97671 13.4296 5.18601 12.6389C4.39534 11.8482 4 10.8803 4 9.73522C4 8.59009 4.39534 7.6222 5.18601 6.83152C5.97671 6.04085 6.94461 5.64551 8.08971 5.64551C9.23483 5.64551 10.2027 6.04085 10.9934 6.83152C11.7841 7.6222 12.1794 8.59009 12.1794 9.73522C12.1794 10.8803 11.7841 11.8482 10.9934 12.6389C10.2027 13.4296 9.23483 13.8249 8.08971 13.8249ZM8.08855 11.9916C8.71141 11.9916 9.24339 11.7715 9.68449 11.3312C10.1256 10.8909 10.3461 10.3593 10.3461 9.73641C10.3461 9.11352 10.126 8.58153 9.68569 8.14043C9.24538 7.69933 8.71379 7.47878 8.0909 7.47878C7.46804 7.47878 6.93605 7.69894 6.49495 8.13927C6.05385 8.57957 5.8333 9.11116 5.8333 9.73402C5.8333 10.3569 6.05346 10.8889 6.49376 11.33C6.93407 11.7711 7.46566 11.9916 8.08855 11.9916ZM23.2499 10.6519H15.7756C15.5159 10.6519 15.2982 10.564 15.1225 10.3882C14.9468 10.2124 14.8589 9.99463 14.8589 9.73479C14.8589 9.47496 14.9468 9.25731 15.1225 9.08182C15.2982 8.90633 15.5159 8.81858 15.7756 8.81858H23.2499C23.5097 8.81858 23.7274 8.90646 23.9031 9.08221C24.0788 9.25799 24.1666 9.47579 24.1666 9.73561C24.1666 9.99546 24.0788 10.2131 23.9031 10.3886C23.7274 10.5641 23.5097 10.6519 23.2499 10.6519Z" fill="#49D199"/>
</svg>
