<svg width="101" height="100" viewBox="0 0 101 100" fill="none" xmlns="http://www.w3.org/2000/svg">
<g clip-path="url(#clip0_162_4390)">
<path d="M57.3229 0.311523L64.8418 4.95259C57.5061 10.2676 53.5618 24.0585 52.4776 32.0419C53.0165 23.7399 54.7094 8.58382 57.3229 0.311523ZM30.9223 12.0599C41.3136 13.4647 49.2253 19.9853 51.1262 27.9878C42.7489 25.353 30.4158 23.4536 20.0664 21.969C11.8309 20.4588 2.37415 19.4791 -2.82825 13.0215C9.11924 13.8545 19.9585 11.7668 30.9223 12.0599ZM51.7893 36.8122C52.188 37.0307 52.7002 37.0307 53.0988 36.8122C67.0732 29.3423 77.6656 28.586 84.6951 32.9656C91.7245 37.3452 95.72 47.2248 95.72 62.1912C95.72 71.9055 91.4891 81.5873 84.0615 87.6957C76.6339 93.8038 66.0468 96.4797 52.8876 92.1696C52.6155 92.0818 52.3148 92.0818 52.0428 92.1696C38.8836 96.4797 28.2965 93.8038 20.8689 87.6957C13.4413 81.5873 9.21037 71.9055 9.21037 62.1912C9.21037 46.9446 13.2912 36.9792 20.362 32.6311C30.5948 26.968 43.3252 32.1918 51.7893 36.8122Z" fill="#49D199"/>
</g>
<defs>
<clipPath id="clip0_162_4390">
<rect width="100" height="100" fill="white" transform="translate(0.5)"/>
</clipPath>
</defs>
</svg>
